<svg width="147" height="95" viewBox="0 0 147 95" fill="none" xmlns="http://www.w3.org/2000/svg">
<g clip-path="url(#clip0_33_152)">
<path d="M37.2385 41.462C56.1915 38.9963 76.9176 27.2199 88.7377 12.2005L94.5017 4.89254C95.6084 3.47279 95.0082 2.23238 93.2755 2.33698C79.4418 3.21871 64.6368 7.01465 56.2439 9.45063C52.1829 10.6313 48.2993 13.4409 46.4292 16.5792L32.6706 39.6686C31.8601 41.0288 32.6548 42.0599 34.3541 41.8357L37.2385 41.462Z" fill="#333333"/>
<path d="M97.1571 12.2001C91.078 27.2196 97.7692 38.996 113.784 41.4617L116.223 41.8354C117.655 42.0596 119.678 41.0285 120.489 39.6683L134.247 16.5789C136.108 13.4554 135.573 10.6458 132.928 9.45026C127.465 6.99934 117.157 3.21834 104.374 2.33662C102.767 2.23201 100.67 3.47242 100.103 4.89217L97.1571 12.2001Z" fill="#333333"/>
<path d="M109.478 48.7116C90.5253 51.1773 69.7993 62.9537 57.9789 77.9731L47.7435 92.2304C46.8213 93.5156 47.9307 94.4273 49.6108 93.71C49.6108 93.71 49.6282 93.71 49.6544 93.6951C64.3991 87.3436 99.3271 70.7101 114.176 49.9371C114.903 48.9209 114.341 48.0839 113.077 48.2483L109.496 48.7116H109.478Z" fill="#333333"/>
<path d="M49.5412 77.9664C55.6206 62.9471 48.9293 51.1707 32.9151 48.7046L29.6514 48.1966C28.6967 48.0472 27.3121 48.7942 26.8732 49.706C16.7721 70.5986 32.1627 87.3366 39.4248 93.6882C40.1814 94.3456 42.1667 93.5536 42.7312 92.373L49.5677 77.9515L49.5412 77.9664Z" fill="#333333"/>
</g>
<defs>
<clipPath id="clip0_33_152">
<rect width="90" height="110" fill="white" transform="matrix(1 0 -0.511893 0.859049 56.3082 0)"/>
</clipPath>
</defs>
</svg>
