<svg width="163" height="109" viewBox="0 0 163 109" fill="none" xmlns="http://www.w3.org/2000/svg">
<g clip-path="url(#clip0_33_152)">
<path d="M48.9415 36.0795C67.3742 40.1012 89.9291 35.1526 104.985 23.7832L112.322 18.2556C113.736 17.1772 113.5 15.6926 111.847 15.2006C98.6354 11.3201 83.7431 10.1033 75.2257 9.70592C71.1038 9.51563 66.7183 11.0636 64.135 13.6469L45.1295 32.6524C44.0099 33.7719 44.4832 35.1084 46.1367 35.4658L48.9415 36.0795Z" fill="#333333"/>
<path d="M112.884 26.6969C103.214 40.0534 106.382 54.4917 120.756 62.5727L122.945 63.8016C124.229 64.528 126.4 64.1669 127.52 63.0473L146.525 44.0418C149.096 41.4708 149.336 38.3935 147.17 36.2472C142.692 31.8334 134.02 24.3737 122.26 19.0417C120.779 18.3775 118.485 18.9289 117.577 20.1939L112.884 26.6969Z" fill="#333333"/>
<path d="M114.802 68.5454C96.3694 64.5236 73.8146 69.4723 58.7585 80.8415L45.3908 91.975C44.1863 92.9787 44.9863 94.3012 46.752 94.1444C46.752 94.1444 46.7683 94.1504 46.7968 94.1441C62.3075 92.7094 99.4691 87.6765 118.885 71.4328C119.836 70.6385 119.53 69.5822 118.301 69.314L114.818 68.5514L114.802 68.5454Z" fill="#333333"/>
<path d="M50.8439 77.9142C60.5138 64.5579 57.346 50.1196 42.9727 42.0384L40.045 40.3859C39.1887 39.9015 37.6924 40.1913 37.0399 40.9779C22.046 58.9881 32.0652 81.5447 37.2012 90.5963C37.7373 91.535 39.8091 91.4068 40.6505 90.3869L50.8728 77.9081L50.8439 77.9142Z" fill="#333333"/>
</g>
<defs>
<clipPath id="clip0_33_152">
<rect width="90" height="110" fill="white" transform="matrix(0.938191 0.346117 -0.707107 0.707107 77.7817 0)"/>
</clipPath>
</defs>
</svg>
