<svg width="165" height="103" viewBox="0 0 165 103" fill="none" xmlns="http://www.w3.org/2000/svg">
<g clip-path="url(#clip0_33_160)">
<path d="M93.7024 89.7873L90.8343 77.4866C90.7448 77.1004 90.4491 76.774 89.9947 76.5599C89.5404 76.3458 88.9538 76.2563 88.3293 76.306C82.2366 76.7737 76.4237 76.1409 71.5182 74.4757C66.6128 72.8105 62.8012 70.1763 60.4951 66.8575C60.257 66.5191 59.8333 66.268 59.2907 66.1435C58.748 66.0191 58.1171 66.0284 57.497 66.17L37.7157 70.7824C37.1027 70.92 36.5332 71.1791 36.0942 71.5201C35.6552 71.8611 35.3711 72.2652 35.2854 72.6703C35.2353 72.94 35.2716 73.2015 35.392 73.4378C39.0768 80.5505 46.4298 86.204 56.3962 89.5872C66.3626 92.9703 78.4302 93.9092 90.8678 92.2693C91.2792 92.2161 91.6873 92.1061 92.0638 91.9468C92.4404 91.7875 92.7764 91.5827 93.0489 91.3465C93.3162 91.1092 93.513 90.847 93.6258 90.5778C93.7386 90.3087 93.7647 90.0391 93.7024 89.7873ZM145.571 37.9293L125.797 42.5401C125.175 42.6857 124.541 42.697 123.996 42.572C123.451 42.4471 123.028 42.1931 122.795 41.8513C119.572 37.2248 113.463 33.9797 105.706 32.7739C97.9486 31.5681 89.1243 32.4919 81.0221 35.3579C74.8638 37.5413 69.432 40.7386 65.3816 44.5644C61.3263 48.3884 58.8244 52.6787 58.1775 56.9178C58.1187 57.3264 57.8523 57.7397 57.4212 58.0916C56.99 58.4435 56.4189 58.7137 55.7995 58.8588L36.0211 63.4683C35.6213 63.5644 35.2127 63.6053 34.8238 63.5881C34.4348 63.5709 34.075 63.496 33.7692 63.3686C33.4634 63.2412 33.2192 63.0645 33.0535 62.8506C32.8878 62.6368 32.8046 62.391 32.8098 62.1305C32.9953 52.4439 38.9371 42.3638 49.4136 33.9624C59.8902 25.561 74.1054 19.4766 89.1371 16.9601C102.121 14.7821 114.924 15.4005 125.548 18.7187C136.172 22.037 144.018 27.8683 147.861 35.302C147.98 35.5339 148.014 35.7914 147.959 36.0567C147.905 36.322 147.764 36.5887 147.546 36.8385C147.329 37.0885 147.039 37.3155 146.698 37.5039C146.357 37.6922 145.972 37.8374 145.571 37.9293ZM81.6018 64.4211C85.1745 65.6339 89.6607 65.7372 94.0735 64.7082C98.4862 63.6793 102.464 61.6025 105.132 58.9346C107.8 56.2667 108.939 53.2264 108.299 50.4823C107.66 47.7383 105.293 45.5154 101.72 44.3026C98.1476 43.0898 93.6614 42.9866 89.2486 44.0155C84.8358 45.0444 80.858 47.1212 78.1901 49.7891C75.5222 52.457 74.3829 55.4973 75.0227 58.2414C75.6625 60.9854 78.0291 63.2083 81.6018 64.4211Z" fill="#333333"/>
</g>
<defs>
<clipPath id="clip0_33_160">
<rect width="99.6271" height="99.6271" fill="white" transform="matrix(0.94693 0.321439 -0.707107 0.707107 70.447 0)"/>
</clipPath>
</defs>
</svg>
