<svg width="150" height="86" viewBox="0 0 150 86" fill="none" xmlns="http://www.w3.org/2000/svg">
<g clip-path="url(#clip0_33_160)">
<path d="M95.7699 74.6372L89.848 64.3136C89.6626 63.9894 89.2926 63.7834 88.7975 63.7288C88.3024 63.6742 87.7109 63.7742 87.1182 64.0126C81.3318 66.3239 75.5354 67.5455 70.3551 67.5455C65.1747 67.5455 60.8072 66.3239 57.7241 64.0126C57.4068 63.7779 56.932 63.6801 56.3743 63.7345C55.8165 63.789 55.2073 63.9927 54.6423 64.3136L36.6454 74.6372C36.0864 74.9522 35.6005 75.3646 35.2621 75.8112C34.9237 76.2578 34.7515 76.714 34.7719 77.1097C34.7922 77.3711 34.8941 77.5982 35.0712 77.7762C40.4597 83.1188 49.0313 85.9965 59.5562 85.9965C70.0812 85.9965 82.0187 83.1188 93.6561 77.7762C94.0413 77.6005 94.4088 77.374 94.7331 77.1123C95.0574 76.8507 95.3309 76.56 95.5346 76.2605C95.7331 75.9615 95.8569 75.6616 95.8975 75.3814C95.9381 75.1012 95.8946 74.8474 95.7699 74.6372ZM132.803 11.3269L114.813 21.6469C114.247 21.972 113.635 22.1785 113.076 22.2331C112.516 22.2877 112.041 22.1872 111.727 21.9479C107.421 18.7284 100.671 17.6609 92.8434 18.9618C85.0162 20.2627 76.6984 23.8346 69.5766 28.9533C64.1647 32.8485 59.7161 37.443 56.7669 42.183C53.8127 46.9228 52.4832 51.6069 52.9389 55.6706C52.9862 56.0612 52.8336 56.5203 52.5055 56.9744C52.1775 57.4286 51.6929 57.8515 51.1295 58.1754L33.1347 68.4954C32.7718 68.7067 32.3861 68.8704 32.0047 68.975C31.6233 69.0797 31.2553 69.1228 30.9264 69.1013C30.5975 69.0798 30.3156 68.9942 30.1003 68.8506C29.8851 68.707 29.7417 68.5087 29.6802 68.2696C27.386 59.3839 30.5711 48.3587 38.5807 37.4604C46.5903 26.5622 58.8157 16.619 72.7438 9.67497C84.7732 3.67308 97.3421 0.275577 108.488 0.0130285C119.634 -0.24952 128.729 2.63767 134.353 8.22372C134.527 8.3983 134.625 8.62265 134.64 8.88127C134.655 9.13988 134.587 9.42658 134.44 9.72155C134.293 10.0168 134.07 10.3132 133.787 10.5904C133.505 10.8676 133.169 11.1189 132.803 11.3269ZM77.5615 55.2621C81.3344 55.2621 85.7095 53.9683 89.7242 51.6654C93.7389 49.3624 97.0643 46.2389 98.969 42.9821C100.874 39.7252 101.202 36.6017 99.8806 34.2987C98.5595 31.9958 95.6977 30.702 91.9248 30.702C88.1518 30.702 83.7768 31.9958 79.7621 34.2987C75.7474 36.6017 72.4219 39.7252 70.5172 42.9821C68.6125 46.2389 68.2846 49.3624 69.6057 51.6654C70.9267 53.9683 73.7885 55.2621 77.5615 55.2621Z" fill="#333333"/>
</g>
<defs>
<clipPath id="clip0_33_160">
<rect width="99.6271" height="99.6271" fill="white" transform="matrix(1 0 -0.504829 0.863219 50.2946 0)"/>
</clipPath>
</defs>
</svg>
