<svg width="190" height="109" viewBox="0 0 190 109" fill="none" xmlns="http://www.w3.org/2000/svg">
<g clip-path="url(#clip0_33_171)">
<path d="M105.072 75.4806C107.119 73.2616 108.023 71.2284 107.656 69.7183C107.325 68.332 105.866 67.5308 103.599 67.4384L59.9448 66.9457C59.659 66.9457 59.4814 66.8228 59.4461 66.6379C59.4108 66.4531 59.5197 66.2064 59.7357 65.9596C60.0944 65.59 60.6848 65.3127 61.1677 65.2813L105.791 64.7887C111.164 64.5733 119.02 60.9062 123.65 56.4073L129.518 50.707C129.77 50.4603 129.949 50.2144 130.022 49.9676C133.692 38.8112 127.028 30.4917 113.25 30.4917C100.541 30.4917 85.6164 37.5792 76.0126 47.4087C74.3814 45.7285 71.5925 44.9486 68.1895 45.2212C61.7784 45.7452 54.42 49.9668 50.7317 55.2356C49.7963 56.5913 49.1284 57.9166 48.7644 59.1486C38.6593 59.3953 26.5905 66.4209 21.5268 75.0795C21.076 75.8502 20.6975 76.6201 20.3538 77.3908C20.2804 77.5688 20.2883 77.7316 20.3758 77.8501C20.4634 77.9686 20.6251 78.0351 20.832 78.0378H101.935C102.399 78.0378 102.99 77.7605 103.367 77.3595L105.072 75.4806ZM133.321 51.1064C132.928 51.1064 132.5 51.1064 132.089 51.1369C131.803 51.1369 131.445 51.3217 131.194 51.5685L126.472 56.7143C124.424 58.9332 123.521 60.9664 123.887 62.4765C124.219 63.8628 125.678 64.6641 127.945 64.7565L137.009 65.2491C137.295 65.2491 137.473 65.3721 137.508 65.5569C137.543 65.7417 137.417 66.019 137.219 66.2352C136.86 66.6049 136.269 66.8821 135.787 66.9135L125.75 67.407C120.341 67.6223 112.521 71.2895 107.891 75.7883L106.258 77.3595C105.936 77.6673 106.005 77.9759 106.397 77.9759H139.881C140.274 77.9759 140.756 77.7605 141.062 77.4214C142.678 75.634 144.099 73.7543 145.234 71.8134C151.902 60.4119 146.564 51.1064 133.321 51.1064Z" fill="#333333"/>
</g>
<defs>
<clipPath id="clip0_33_171">
<rect width="125.726" height="125.726" fill="white" transform="matrix(1 0 -0.504829 0.863219 63.4703 0)"/>
</clipPath>
</defs>
</svg>
