<svg width="164" height="94" viewBox="0 0 164 94" fill="none" xmlns="http://www.w3.org/2000/svg">
<g clip-path="url(#clip0_33_173)">
<path d="M120.459 72.2919C116.081 73.1437 114.159 72.3286 113.638 69.538C112.461 63.2884 110.614 57.3253 109.019 51.252C108.815 50.4662 108.577 49.6951 108.289 48.7184C98.0487 55.8125 88.0147 62.5687 78.1961 69.5967C74.6855 72.1083 71.9017 73.2025 68.6101 72.3139L107.029 45.7809L99.7234 21.8183C103.751 21.2014 106.101 21.5172 106.69 24.3519C107.99 30.6087 109.977 36.5645 111.746 42.8655C120.905 36.5865 129.795 30.6234 138.524 24.4253C142.043 21.9137 144.805 20.959 147.947 21.8844C143.289 25.0789 138.719 28.222 134.146 31.3431C127.976 35.5511 121.844 39.8105 115.589 43.9303C113.361 45.3991 113.024 46.3537 113.437 47.7417C115.829 55.8125 118.089 63.9641 120.459 72.2919ZM29.5887 45.3403C31.7516 42.6892 33.7405 39.9867 36.1116 37.387C50.4197 21.6494 75.1746 15.1061 83.8486 24.8586C88.9253 30.5794 86.3024 38.6428 80.5686 47.7344H33.0973C22.844 64.0448 30.688 73.8928 50.9638 68.8697C58.0773 67.1072 64.064 62.9947 68.8654 57.8541C71.2831 55.2764 73.0252 54.8725 75.4031 55.6069C70.2032 62.04 63.801 67.4156 55.0281 70.779C41.873 75.8169 28.2533 74.1865 24.6811 67.188C22.5602 63.0755 23.631 57.9569 26.0142 52.427C26.402 51.5458 26.645 50.6792 26.9519 49.8053C27.8394 48.317 28.7183 46.8286 29.5887 45.3403ZM35.2224 44.2461H78.1252C84.7419 32.452 81.1349 24.0728 69.5482 23.9994C56.8386 23.9112 42.8833 32.0922 35.2224 44.2461Z" fill="#333333"/>
</g>
<defs>
<clipPath id="clip0_33_173">
<rect width="108.895" height="108.895" fill="white" transform="matrix(1 0 -0.504829 0.863219 54.9732 0)"/>
</clipPath>
</defs>
</svg>
