<svg width="181" height="111" viewBox="0 0 181 111" fill="none" xmlns="http://www.w3.org/2000/svg">
<g clip-path="url(#clip0_33_173)">
<path d="M120.271 92.5186C115.884 92.0176 114.27 90.6085 114.509 87.6574C115.033 81.0449 114.844 74.5119 114.924 67.9464C114.937 67.0977 114.913 66.2531 114.896 65.1875C103.291 69.1163 91.972 72.771 80.786 76.7639C76.7868 78.1904 73.8515 78.4242 70.9546 76.5185L114.47 61.8611L113.823 35.644C117.816 36.2717 119.968 37.3138 119.782 40.3299C119.374 46.9879 119.698 53.557 119.723 60.4035C130.085 56.9558 140.107 53.7405 150.039 50.2407C154.046 48.8169 156.924 48.7158 159.669 50.6121C154.399 52.3666 149.227 54.0974 144.057 55.8049C137.082 58.1056 130.13 60.4695 123.098 62.656C120.592 63.4359 120.021 64.2863 120.049 65.8018C120.202 74.6108 120.208 83.4596 120.271 92.5186ZM40.9358 37.4902C43.69 35.5078 46.2922 33.4202 49.2308 31.5536C66.9769 20.2394 92.2408 21.3467 97.9258 33.7783C101.25 41.0672 96.635 48.319 88.7911 55.6376L43.6433 40.9682C29.6029 54.1081 34.4735 66.3787 55.0776 67.6217C62.3065 68.0577 69.0815 65.7957 74.9997 62.1395C77.9769 60.3093 79.7399 60.4437 81.8084 61.9128C75.1713 66.7382 67.669 70.1348 58.441 70.7868C44.6051 71.7588 32.0806 65.92 30.5235 57.8184C29.5878 53.0511 31.9522 48.2641 35.6729 43.4714C36.2734 42.7101 36.7324 41.9187 37.2541 41.1398C38.4894 39.9259 39.7167 38.7093 40.9358 37.4902ZM46.5816 38.137L87.3846 51.3947C96.7787 41.6468 95.5515 32.1541 84.5513 28.5002C72.4869 24.4846 57.0634 28.352 46.5816 38.137Z" fill="#333333"/>
</g>
<defs>
<clipPath id="clip0_33_173">
<rect width="108.895" height="108.895" fill="white" transform="matrix(0.951057 0.309017 -0.707107 0.707107 77.0002 0)"/>
</clipPath>
</defs>
</svg>
