<svg width="199" height="122" viewBox="0 0 199 122" fill="none" xmlns="http://www.w3.org/2000/svg">
<g clip-path="url(#clip0_33_179)">
<path d="M139.629 34.0554C139.982 30.9612 142.241 29.5793 145.031 28.3017C147.529 27.158 150.512 24.7288 148.918 21.5366C153.154 21.707 156.793 25.0216 153.936 27.9987C150.032 29.3459 143.975 28.4176 139.629 34.0554ZM109.089 96.2332C103.583 99.5999 102.249 101.91 87.1468 107.708C105.795 105.51 119.699 99.3672 130.764 90.8636C128.17 95.0658 124.831 98.5571 121.09 101.666C141.45 94.938 168.808 76.9201 165.511 48.801C155.533 57.5148 136.69 60.806 125.939 53.6216C151.052 59.2608 174.484 37.8006 159.611 26.2547C153.895 32.4859 144.692 26.8469 139.819 36.0843C133.208 27.5768 109.264 18.4898 92.0709 22.5517C83.2075 24.6457 76.6151 26.6173 70.0242 24.7477C64.5826 23.2039 51.2592 27.3028 57.0648 33.4992C55.219 36.4912 56.716 39.0227 58.2131 39.8616C52.9469 44.5464 56.7895 42.534 60.9175 41.0873C54.1352 46.9686 57.4544 45.1345 63.7657 43.0256C94.6374 47.7101 93.1861 68.7973 83.3596 78.8459C85.055 76.9944 83.2651 73.6187 80.621 73.5292C77.0312 75.2721 73.6486 76.6422 70.8545 76.9527C72.5063 75.5604 73.8286 74.0611 74.9285 72.4897C72.5497 74.0493 69.5578 75.4993 65.7833 76.8093C61.9294 75.7607 58.7972 72.0319 63.6955 69.1293C69.1192 66.521 65.6371 64.4809 61.3351 64.3342C58.1023 64.2241 54.4319 65.6354 53.5877 66.1708C50.5416 68.1016 45.8972 73.1129 48.3907 78.2468C46.6749 77.9631 44.9413 77.6439 43.4271 77.7622C48.8164 85.3475 60.2998 87.1075 67.5275 87.2544C79.3614 87.495 93.1772 82.0071 99.9695 76.5177C94.3284 85.5102 80.716 93.1185 65.6878 94.6882C68.3617 95.8595 75.5042 96.2434 82.8531 96.591C74.3527 99.2731 65.2072 101.464 53.542 101.736C71.5342 106.184 90.2454 103.887 109.089 96.2332" fill="#333333"/>
</g>
<defs>
<clipPath id="clip0_33_179">
<rect width="119.726" height="119.726" fill="white" transform="matrix(0.951057 0.309017 -0.707107 0.707107 84.6593 0)"/>
</clipPath>
</defs>
</svg>
