<svg width="181" height="104" viewBox="0 0 181 104" fill="none" xmlns="http://www.w3.org/2000/svg">
<g clip-path="url(#clip0_33_179)">
<path d="M122.366 14.9216C121.919 11.9652 123.755 10.0157 126.133 8.00296C128.261 6.20119 130.532 3.07 128.174 0.605951C132.321 -0.505265 136.691 1.4594 134.681 5.05788C131.242 7.46804 125.139 8.42584 122.366 14.9216ZM108.622 81.3551C104.146 86.1056 103.441 88.6332 90.2893 98.4967C107.794 90.8888 119.698 81.0665 128.25 69.9186C126.808 74.5671 124.462 78.7837 121.631 82.7679C139.639 70.4735 161.551 45.6814 151.193 20.7598C143.748 31.7757 126.333 40.4495 114.089 37.0484C139.852 34.726 157.083 7.93776 139.734 1.75209C135.785 9.2046 125.433 6.76417 123.066 16.7342C114.495 10.8746 88.9858 9.67028 73.3657 18.5602C65.3132 23.1431 59.4295 26.9334 52.5687 27.1839C46.9042 27.3906 35.0422 35.156 42.2445 39.1273C41.2187 42.4367 43.3138 44.321 44.9778 44.6458C41.0699 50.539 44.2795 47.5344 47.9097 44.9656C42.838 52.4151 45.5861 49.7314 51.1625 45.8988C82.2609 40.9727 86.2271 60.8369 79.2682 73.0374C80.4388 70.8239 77.845 68.2494 75.2609 68.9585C72.2275 71.6392 69.2998 73.9143 66.6723 75.0368C67.9178 73.2595 68.8166 71.4822 69.4818 69.705C67.5748 71.8542 65.046 74.0859 61.7234 76.423C57.7231 76.6105 53.739 74.1125 57.7444 69.9717C62.3339 65.9446 58.4411 65.1073 54.2364 66.2601C51.0768 67.1265 47.8808 69.5258 47.1995 70.2718C44.7407 72.9628 41.5183 78.9706 45.2417 82.9544C43.5073 83.2067 41.7466 83.4316 40.31 83.994C47.4629 89.3696 59.0351 87.5533 66.0739 85.5249C77.5985 82.2037 89.5837 73.011 94.7649 65.9196C91.5913 75.8941 80.3433 86.9796 66.1856 92.9251C69.0742 93.2038 76.0909 91.4192 83.2982 89.5394C75.7472 94.5555 67.4462 99.312 56.2156 103.055C74.7776 101.767 92.3177 94.0488 108.622 81.3551" fill="#333333"/>
</g>
<defs>
<clipPath id="clip0_33_179">
<rect width="119.726" height="119.726" fill="white" transform="matrix(1 0 -0.504829 0.863219 60.4414 0)"/>
</clipPath>
</defs>
</svg>
