<svg width="165" height="95" viewBox="0 0 165 95" fill="none" xmlns="http://www.w3.org/2000/svg">
<g clip-path="url(#clip0_33_164)">
<path d="M59.0906 86.2574C34.0049 86.2574 23.9357 68.704 36.5997 47.0495C49.2637 25.3949 79.8641 7.84155 104.95 7.84155C130.036 7.84155 140.105 25.3949 127.441 47.0495C114.777 68.704 84.1764 86.2574 59.0906 86.2574Z" stroke="#333333" stroke-width="1.5" stroke-linecap="round" stroke-linejoin="round"/>
<path d="M59.0907 86.2574C49.0528 86.2574 51.1881 68.704 63.8521 47.0495C76.5162 25.3949 94.912 7.84155 104.95 7.84155C114.988 7.84155 112.853 25.3949 100.189 47.0495C87.5245 68.704 69.1287 86.2574 59.0907 86.2574Z" stroke="#333333" stroke-width="1.5" stroke-linecap="round" stroke-linejoin="round"/>
<path d="M47.7572 82.3365C36.424 78.4158 41.9458 61.2074 49.0792 49.0098C56.2126 36.8123 71.943 21.5643 93.5726 11.7623M116.283 11.7623C127.616 15.6831 122.094 32.8915 114.961 45.089C107.828 57.2866 92.0971 72.5346 70.4675 82.3365" stroke="#333333" stroke-width="1.5" stroke-linecap="round" stroke-linejoin="round"/>
</g>
<defs>
<clipPath id="clip0_33_164">
<rect width="109.009" height="109.009" fill="white" transform="matrix(1 0 -0.504829 0.863219 55.0312 0)"/>
</clipPath>
</defs>
</svg>
