<svg width="181" height="111" viewBox="0 0 181 111" fill="none" xmlns="http://www.w3.org/2000/svg">
<g clip-path="url(#clip0_33_164)">
<path d="M58.2607 87.5005C34.4027 79.7486 29.442 59.086 47.1804 41.3476C64.9187 23.6093 98.6371 15.5143 122.495 23.2662C146.353 31.0181 151.314 51.6808 133.575 69.4191C115.837 87.1574 82.1187 95.2525 58.2607 87.5005Z" stroke="#333333" stroke-width="1.5" stroke-linecap="round" stroke-linejoin="round"/>
<path d="M58.2606 87.5005C48.714 84.3986 55.3605 67.5074 73.0988 49.769C90.8371 32.0307 112.948 20.1642 122.495 23.2661C132.042 26.368 125.395 43.2593 107.657 60.9976C89.9185 78.7359 67.8073 90.6024 58.2606 87.5005Z" stroke="#333333" stroke-width="1.5" stroke-linecap="round" stroke-linejoin="round"/>
<path d="M48.5132 80.078C38.7656 72.6556 48.5421 57.1558 58.5338 47.1642C68.5254 37.1725 87.4954 26.7875 110.644 23.6707M132.243 30.6886C141.99 38.111 132.214 53.6108 122.222 63.6024C112.23 73.5941 93.2604 83.9791 70.1119 87.0959" stroke="#333333" stroke-width="1.5" stroke-linecap="round" stroke-linejoin="round"/>
</g>
<defs>
<clipPath id="clip0_33_164">
<rect width="109.009" height="109.009" fill="white" transform="matrix(0.951057 0.309017 -0.707107 0.707107 77.0812 0)"/>
</clipPath>
</defs>
</svg>
