<svg width="164" height="94" viewBox="0 0 164 94" fill="none" xmlns="http://www.w3.org/2000/svg">
<g clip-path="url(#clip0_33_175)">
<path d="M81.4418 40.8822C79.6494 41.574 77.927 42.6055 76.4926 43.8463C75.0582 45.087 73.9761 46.4814 73.3831 47.853C72.7901 49.2246 72.7129 50.5118 73.1613 51.552C73.6096 52.5922 74.5633 53.3385 75.9019 53.6967C77.2404 54.0548 78.9036 54.0087 80.6813 53.5642C82.4589 53.1196 84.2711 52.2966 85.8887 51.1992C87.5063 50.1018 88.8567 48.7792 89.7691 47.3988C90.6815 46.0183 91.115 44.6419 91.0148 43.4437C90.9482 42.6479 90.6477 41.9504 90.1306 41.391C89.6134 40.8316 88.8897 40.4212 88.0007 40.1833C87.1117 39.9455 86.075 39.8848 84.9496 40.0047C83.8242 40.1246 82.6322 40.4228 81.4418 40.8822ZM113.324 48.4727C113.098 47.9479 112.845 47.4217 112.563 46.8943C113.195 46.5183 113.813 46.1436 114.419 45.7702C125.833 38.7045 133.055 31.6154 132.696 27.358C132.353 23.2729 124.939 22.0548 113.764 23.7625C112.663 23.9322 111.555 24.1228 110.439 24.3343C110.578 23.7703 110.706 23.2089 110.821 22.6501C112.62 13.6692 110.459 7.82946 104.758 7.83338C99.2949 7.83338 90.8136 13.305 82.4925 21.7689C81.6711 22.6044 80.8724 23.4452 80.0963 24.2912C79.5163 24.1502 78.9272 24.0197 78.329 23.8995C68.7047 22 59.3282 23.2533 53.9889 27.5185C48.873 31.6036 47.8124 38.2894 50.6785 45.0339C50.9667 45.6997 51.2807 46.3525 51.6204 46.9922C50.3397 47.739 49.1097 48.4845 47.9304 49.2286C37.394 55.8791 30.8644 62.4513 31.2068 66.5207C31.5599 70.7272 39.2769 72.102 50.6844 70.3395C51.6093 70.1958 52.5404 70.034 53.4776 69.8538C53.2441 70.7703 53.0461 71.6803 52.8838 72.5837C51.3923 80.8753 53.5474 86.1667 58.9921 86.1667C64.6184 86.1667 73.5818 80.4758 82.0513 71.8356C82.7206 71.1515 83.3893 70.4452 84.0573 69.7167C84.9968 69.9465 85.9591 70.1501 86.9442 70.3277C95.9846 71.961 104.669 70.6802 109.769 66.6069C115.04 62.3965 116.268 55.3386 113.324 48.4727ZM56.3707 29.187C59.6568 26.5629 67.3214 25.5367 75.6291 27.1817C76.1609 27.2862 76.6956 27.4037 77.2333 27.5342C74.3065 30.9902 71.6177 34.4941 69.1845 38.023C64.6553 40.0531 60.1735 42.2667 55.767 44.65C55.4512 44.0573 55.1604 43.4502 54.8947 42.8288C52.4314 37.0556 53.2875 31.6506 56.3707 29.187ZM60.8869 51.6217C59.4593 50.106 58.2111 48.555 57.1672 46.9961C60.0253 45.4451 63.083 43.902 66.2811 42.3901C65.297 43.9281 64.356 45.4673 63.4581 47.0079C62.5571 48.5484 61.7 50.0864 60.8869 51.6217ZM51.8621 67.0534C47.4857 67.8128 43.3515 67.9376 39.6684 67.4215C38.6198 67.3469 37.7128 67.0801 37.0032 66.6375C36.2937 66.195 35.7966 65.5861 35.5425 64.8483C35.3294 62.3808 40.5768 57.1011 49.5879 51.4141C50.7187 50.7013 51.8629 50.0067 53.0207 49.3305C54.631 51.7293 56.5239 53.9536 58.6868 55.9888C56.9723 59.5621 55.5429 63.1103 54.4077 66.6108C53.5553 66.7753 52.7045 66.9241 51.8553 67.0573M102.484 35.5712C101.446 34.7435 100.375 33.9432 99.2688 33.1703C98.1781 32.4078 97.0547 31.6728 95.8986 30.9652C99.0296 30.026 102.148 29.196 105.243 28.4781C104.476 30.8205 103.555 33.188 102.484 35.5712ZM85.5287 22.8538C92.6519 15.608 99.5143 11.1821 102.808 11.1821C106.318 11.1782 108.081 15.9526 106.529 23.7037C106.427 24.2103 106.31 24.7194 106.18 25.2312C101.655 26.2783 97.0839 27.5475 92.4974 29.0304C89.6693 27.5284 86.5999 26.2447 83.3105 25.1881C84.0318 24.4048 84.7712 23.6267 85.5287 22.8538ZM80.452 28.4311C82.6945 29.1529 84.8236 29.9922 86.831 30.9456C82.8212 32.3608 78.822 33.9027 74.8335 35.5712C76.6578 33.0724 78.5429 30.6793 80.452 28.4311ZM61.4681 58.4328C62.4843 59.2657 63.5423 60.066 64.6421 60.8337C65.763 61.617 66.9218 62.369 68.1186 63.0897C64.9584 64.0754 61.8088 64.9448 58.6824 65.6943C59.4587 63.2974 60.3876 60.8752 61.4658 58.4367M79.0151 70.7585C75.8706 74.0773 72.1544 77.1753 68.0541 79.8961C66.9785 80.676 65.7935 81.3382 64.5719 81.842C63.3502 82.3458 62.1178 82.6806 60.9505 82.8258C57.6428 82.8258 55.9129 78.5762 57.1936 71.4831C57.345 70.645 57.5282 69.799 57.7432 68.9451C62.3078 67.8533 66.9161 66.5316 71.5359 64.9893C74.4145 66.4823 77.5258 67.7632 80.8499 68.8237C80.2519 69.4739 79.6403 70.1188 79.0151 70.7585ZM83.6903 65.5729C81.4052 64.8437 79.2309 63.9993 77.1753 63.0427C79.1227 62.3455 81.1043 61.6079 83.1202 60.8298C85.1906 60.0308 87.2302 59.2122 89.2388 58.374C87.5227 60.792 85.6708 63.1948 83.6903 65.5729ZM96.5825 46.9961C95.1914 49.3748 93.7156 51.751 92.1551 54.1245C89.1471 55.4352 86.0547 56.7042 82.8778 57.9315C79.7145 59.1508 76.6456 60.2684 73.671 61.2841C71.7742 60.2501 69.9731 59.1352 68.2677 57.9393C66.5729 56.7512 64.9775 55.4862 63.4817 54.144C64.6595 51.7679 65.9448 49.3892 67.3375 47.0079C68.7286 44.6292 70.2218 42.2517 71.8171 39.8756C77.95 37.1854 84.1359 34.7985 90.3215 32.7355C92.1835 33.7722 93.9582 34.8832 95.6455 36.0686C97.3418 37.2541 98.9539 38.5061 100.482 39.8247C99.2825 42.2113 97.9828 44.6017 96.5825 46.9961ZM112.586 27.0485C122.161 25.5876 128.156 26.5707 128.362 29.0343C128.584 31.6585 122.684 37.4473 112.823 43.5495C112.278 43.8863 111.72 44.2244 111.149 44.5639C109.484 42.1715 107.526 39.9626 105.288 37.9525C106.986 34.4625 108.399 30.9964 109.518 27.5773C110.572 27.3788 111.594 27.2026 112.586 27.0485ZM103.097 42.2648C104.553 43.7148 105.859 45.2679 107.01 46.9178C103.923 48.5939 100.793 50.1732 97.6318 51.6491C98.6085 50.0981 99.5503 48.5471 100.457 46.9961C101.38 45.419 102.26 43.8419 103.097 42.2648ZM107.392 64.9384C104.295 67.4098 97.3224 68.4399 89.5851 67.0455C88.6982 66.8863 87.8054 66.6957 86.9067 66.4737C89.7918 63.0105 92.431 59.5009 94.8059 55.9692C99.408 53.9242 103.96 51.6799 108.43 49.2521C108.686 49.73 108.917 50.2052 109.121 50.6778C110.355 53.2358 110.775 56.2076 110.361 59.4433C110.335 60.2964 110.058 61.2239 109.547 62.169C109.037 63.114 108.303 64.0564 107.392 64.9384Z" fill="#333333"/>
</g>
<defs>
<clipPath id="clip0_33_175">
<rect width="108.895" height="108.895" fill="white" transform="matrix(1 0 -0.504829 0.863219 54.9732 0)"/>
</clipPath>
</defs>
</svg>
