<svg width="175" height="100" viewBox="0 0 175 100" fill="none" xmlns="http://www.w3.org/2000/svg">
<g clip-path="url(#clip0_33_177)">
<path d="M101.646 24.9659C88.7756 24.9659 77.5374 30.5001 67.8105 41.6099C75.8673 36.0758 82.7238 33.9953 88.3318 35.3684C91.5329 36.159 92.8457 38.4476 94.2535 40.9858C96.5439 45.1468 99.096 49.9319 111.147 49.9319C124.017 49.9319 135.255 44.3978 144.982 33.2879C136.925 38.8221 130.069 40.9026 124.461 39.5294C121.26 38.7388 119.995 36.4503 118.539 33.9121C116.249 29.7511 113.697 24.9659 101.646 24.9659ZM62.9436 49.9319C50.0733 49.9319 38.8351 55.4661 29.1082 66.5759C37.165 61.0418 44.0215 58.9613 49.6295 60.3344C52.8306 61.125 54.0952 63.4136 55.5512 65.9518C57.8417 70.1128 60.3938 74.8979 72.4446 74.8979C85.3149 74.8979 96.5531 69.3638 106.28 58.2539C98.2232 63.7881 91.3667 65.8686 85.7587 64.4954C82.5576 63.7048 81.293 61.4163 79.837 58.8781C77.5465 54.7171 74.9944 49.9319 62.9436 49.9319Z" fill="#333333"/>
</g>
<defs>
<clipPath id="clip0_33_177">
<rect width="115.688" height="115.688" fill="white" transform="matrix(1 0 -0.504829 0.863219 58.4026 0)"/>
</clipPath>
</defs>
</svg>
