<svg width="177" height="92" viewBox="0 0 177 92" fill="none" xmlns="http://www.w3.org/2000/svg">
<g clip-path="url(#clip0_33_162)">
<path d="M125.373 0C122.194 1.43041 119.144 3.2561 116.408 5.36667L115.898 5.76575L106.144 13.5426L65.5075 45.9731L68.123 76.5983L58.3713 84.3793C50.5374 90.6395 40.1562 93.4708 33.6066 91.1335C30.2491 89.9706 28.4679 87.4187 28.0928 84.2807L28.0591 83.9541L25.3475 51.7388C25.1734 50.0032 25.7391 47.9884 26.9177 45.9731C28.0227 44.0766 29.6601 42.2094 31.681 40.5413L32.0892 40.211L73.634 7.07198C78.9847 2.78487 85.7834 0.118108 91.561 0.00414414L91.9451 0H125.373ZM131.777 0.812252C140.897 -1.45459 147.871 1.24739 148.611 7.28126L148.642 7.56638L151.389 40.2069C151.565 41.9387 150.997 43.9574 149.818 45.9731C148.714 47.862 147.07 49.7513 145.055 51.4069L144.647 51.7347L103.102 84.8737C97.7515 89.1608 90.9526 91.828 85.1749 91.942L84.791 91.9457H51.3631C54.5021 90.5201 57.536 88.7203 60.2905 86.6068L60.8378 86.18L70.5943 78.3989L111.228 45.9731L108.636 15.3089L117.832 7.99157C121.967 4.70112 126.902 2.0153 131.777 0.812252Z" fill="#333333"/>
</g>
<defs>
<clipPath id="clip0_33_162">
<rect width="122.9" height="106.578" fill="white" transform="matrix(1 0 -0.504829 0.863219 53.8037 0)"/>
</clipPath>
</defs>
</svg>
