<svg width="208" height="130" viewBox="0 0 208 130" fill="none" xmlns="http://www.w3.org/2000/svg">
<g clip-path="url(#clip0_33_171)">
<path d="M108.266 89.3916C110.793 87.8149 112.188 86.0575 112.242 84.4189C112.296 82.9161 111.127 81.6403 109.005 80.8185L67.7983 66.2902C67.5277 66.1983 67.3921 66.0174 67.4078 65.8199C67.4234 65.6224 67.592 65.4089 67.862 65.2298C68.2997 64.9728 68.9323 64.8833 69.398 65.007L111.784 78.8545C116.929 80.3648 125.341 79.1968 130.92 76.1541L137.989 72.2992C138.292 72.1315 138.527 71.9414 138.662 71.7166C145.098 61.6602 140.995 51.1393 127.948 46.7103C115.914 42.6253 99.9004 44.9659 88.1978 51.7786C87.0991 49.562 84.6651 47.8801 81.3704 47.0608C75.1605 45.5277 67.0723 47.4142 62.1816 51.535C60.9361 52.5998 59.9519 53.7198 59.2804 54.8435C49.646 51.8438 36.3534 55.0402 29.2607 62.1329C28.6293 62.7642 28.0666 63.4179 27.5366 64.0837C27.4199 64.2394 27.3841 64.4058 27.4356 64.5533C27.4871 64.7008 27.6225 64.8198 27.8177 64.889L104.617 90.9588C105.056 91.1078 105.69 91.0186 106.153 90.7359L108.266 89.3916ZM141.483 73.9237C141.111 73.7974 140.706 73.6597 140.309 73.5584C140.038 73.4666 139.65 73.5378 139.347 73.7055L133.51 77.37C130.982 78.9468 129.587 80.7042 129.534 82.3428C129.48 83.8455 130.648 85.1213 132.77 85.9431L141.223 89.353C141.494 89.4449 141.63 89.6258 141.614 89.8233C141.598 90.0208 141.405 90.2593 141.16 90.4134C140.722 90.6704 140.089 90.7599 139.624 90.6362L129.989 87.9072C124.81 86.3853 116.431 87.5649 110.853 90.6076L108.89 91.6651C108.503 91.8714 108.487 92.2044 108.859 92.3307L140.565 103.094C140.937 103.22 141.451 103.158 141.831 102.915C143.835 101.634 145.68 100.198 147.27 98.608C156.609 89.2684 154.024 78.1807 141.483 73.9237Z" fill="#333333"/>
</g>
<defs>
<clipPath id="clip0_33_171">
<rect width="125.726" height="125.726" fill="white" transform="matrix(0.94693 0.321439 -0.707107 0.707107 88.902 0)"/>
</clipPath>
</defs>
</svg>
