<svg width="736" height="254" viewBox="0 0 736 254" fill="none" xmlns="http://www.w3.org/2000/svg">
<path d="M555.176 198.591L533.105 197.739L548.774 185.849L570.069 186.672L569.768 187.519L555.176 198.591ZM527.14 196.452L505.069 195.602L520.737 183.712L542.034 184.534L541.732 185.381L527.14 196.452ZM539.721 167.759L561.017 168.581L560.715 169.428L546.123 180.501L524.052 179.648L539.721 167.759ZM710.536 162.727L734.741 144.361L735.239 142.955L626.192 138.748C644.886 129.113 648.367 118.303 648.367 118.303C648.367 118.303 606.827 126.532 584.357 120.002C561.887 113.473 558.16 106.361 516.627 106.439C475.093 106.518 444.918 132.824 430.437 136.33C415.955 139.837 369.987 151.592 369.987 151.592L369.803 151.973L403.848 151.918C403.848 151.918 391.599 156.086 361.555 170.668C361.555 170.668 361.423 170.365 361.209 169.846L361.144 169.984C361.144 169.984 362.368 190.945 377.781 191.254C379.324 191.285 381.192 191.146 383.317 190.883C386.861 194.802 392.052 199.114 399.211 201.836C399.211 201.836 397.61 195.362 397.368 188.412C398.98 188.086 400.636 187.747 402.324 187.401L401.529 187.589L410.053 193.903L414.939 184.897L415.088 184.869L423.462 191.072L427.668 182.818C429.424 182.581 431.178 182.377 432.928 182.206L469.212 149.394L534.112 135.071L524.953 141.914C501.904 158.919 481.086 158.817 481.086 158.817L472.092 159.21C462.8 163.215 459.561 163.945 444.811 181.794C449.87 182.033 454.23 182.939 457.428 184.828C474.004 194.62 466.696 216.607 457.472 220.759C455.165 221.797 450.324 223.336 444.362 225.061L436.355 222.915L432.394 228.386C431.992 228.494 431.591 228.602 431.189 228.709L423.043 226.526L419.176 231.866L416.084 232.661C408.331 230.743 402.608 222.488 402.608 222.488C398.997 227.634 398.493 236.924 398.493 236.924C398.493 236.924 398.918 236.878 399.646 236.794L398.543 237.066C398.543 237.066 410.914 254.137 426.826 253.305C440.978 252.565 484.602 240.673 516.83 238.152L606.573 241.616L632.565 221.893L564.176 219.253L578.331 199.076L658.554 202.172L684.546 182.45L592.487 178.896L606.644 158.715L710.536 162.727ZM336.715 94.8178L315.938 125.211C311.931 131.177 309.013 135.598 305.605 140.195L305.911 140.277C311.044 135.53 315.547 131.688 322.829 125.682L354.499 99.5843L373.649 104.715L314.543 147.791C297.125 160.265 280.272 170.133 266.182 174.774C259.338 177.07 252.271 178.391 248.266 178.696L249.884 163.52C254.222 162.998 258.891 162.26 263.376 161.015C269.713 159.192 276.345 156.685 280.611 153.695C281.545 152.874 282.3 152.313 283.053 150.985L316.806 89.4845L336.715 94.8178ZM284.127 80.7267L286.54 78.312C293.453 71.2906 301.316 65.7456 310.982 62.5191C318.071 60.1342 326.294 59.7375 333.893 61.7735C338.758 63.077 341.952 64.6976 343.781 65.9525L330.851 77.1781C329.391 76.1746 327.898 75.4698 325.466 74.818C318.625 72.9851 310.428 77.9808 305.326 83.1932L302.82 85.7355L324.86 91.6411L314.324 102.285L292.589 96.4611L244.65 144.978L225.653 139.888L273.592 91.3709M268.118 57.3088C271.371 52.6726 279.027 48.4504 285.713 50.242C291.944 51.9116 292.034 56.6775 288.807 61.017C284.138 67.4165 276.441 69.6384 270.816 68.1314C264.735 66.502 264.619 62.0365 268.118 57.3088ZM194.853 131.635L253.327 72.4739L272.323 77.5638L213.85 136.725L194.853 131.635ZM246.406 50.4203L230.678 66.4053L259.863 74.2253L249.478 84.9097L220.142 77.0491L193.095 104.539C191.104 106.605 189.594 108.496 188.78 109.656C186.07 113.521 187.357 115.549 190.853 116.485C192.22 116.852 194.197 117.382 196.201 117.612L185.426 129.109C181.388 128.947 176.952 128.064 173.304 127.087C161.906 124.033 160.076 117.114 166.04 108.612C168.027 105.78 171.077 102.464 174.006 99.575L201.144 71.9585L192.48 69.6371L203.018 58.9936L211.681 61.315L223.845 49.1195L246.406 50.4203ZM116.065 94.1494C118.112 96.3808 120.857 98.6458 126.265 99.9438C131.827 101.282 136.944 99.1317 139.745 95.1391C142.186 91.6598 141.927 88.6843 139.199 83.8225C135.89 77.7316 136.735 71.3782 140.53 65.9678C148.663 54.374 165.897 47.8225 182.767 52.3429C189.303 54.0943 193.29 56.3859 195.124 58.4054L182.795 69.0286C181.39 67.429 178.528 65.5912 175.336 64.736C169.258 63.1073 163.56 64.7943 160.579 69.0434C158.32 72.264 159.092 74.7675 160.872 78.1507C165.434 85.8017 163.834 92.7162 160.4 97.6112C150.642 111.522 133.819 116.198 116.797 111.637C109.957 109.804 105.054 106.5 103.553 104.262L116.065 94.1494ZM119.524 50.0897C118.187 49.4254 116.909 48.9292 115.845 48.6442C103.383 45.305 81.9671 64.5102 75.3077 73.7425C71.4215 79.2823 69.5336 83.5181 74.2469 84.7811C79.4119 86.165 89.3347 80.2561 100.114 69.5249L119.524 50.0897ZM76.4506 99.9106C78.9513 96.6023 81.6966 93.2059 84.4675 89.5102L84.0147 89.3888C72.213 96.175 62.808 97.4809 56.881 95.8928C46.0918 93.0018 46.2847 83.7173 54.0564 72.6388C67.4304 53.5742 97.6525 29.5392 129.568 38.091C137.017 40.0869 143.741 43.1117 147.216 45.8784L114.432 78.7143C107.456 85.5676 97.5027 97.4398 92.8669 104.307L76.4506 99.9106ZM58.4778 20.2656L60.891 17.8509C67.804 10.8294 75.6658 5.28411 85.3328 2.05796C92.4215 -0.325816 100.644 -0.723995 108.244 1.31239C113.109 2.6159 116.303 4.23652 118.133 5.4914L105.199 16.7174C103.736 15.7118 102.245 15.0087 99.8138 14.3573C92.9734 12.5244 84.7771 17.519 79.6734 22.7325L77.1684 25.2737L91.6074 29.1426L81.07 39.7861L66.9388 35.9997L18.9998 84.5167L4.14644e-05 79.4258L47.9403 30.909" fill="black"/>
<path d="M555.176 198.591L533.105 197.739L548.774 185.849L570.069 186.672L569.768 187.519L555.176 198.591ZM527.14 196.452L505.069 195.602L520.737 183.712L542.034 184.534L541.732 185.381L527.14 196.452ZM539.721 167.759L561.017 168.581L560.715 169.428L546.123 180.501L524.052 179.648L539.721 167.759ZM710.536 162.727L734.741 144.361L735.239 142.955L626.192 138.748C644.886 129.113 648.367 118.303 648.367 118.303C648.367 118.303 606.827 126.532 584.357 120.002C561.887 113.473 558.16 106.361 516.627 106.439C475.093 106.518 444.918 132.824 430.437 136.33C415.955 139.837 369.987 151.592 369.987 151.592L369.803 151.973L403.848 151.918C403.848 151.918 391.599 156.086 361.555 170.668C361.555 170.668 361.423 170.365 361.209 169.846L361.144 169.984C361.144 169.984 362.368 190.945 377.781 191.254C379.324 191.285 381.192 191.146 383.317 190.883C386.861 194.802 392.052 199.114 399.211 201.836C399.211 201.836 397.61 195.362 397.368 188.412C398.98 188.086 400.636 187.747 402.324 187.401L401.529 187.589L410.053 193.903L414.939 184.897L415.088 184.869L423.462 191.072L427.668 182.818C429.424 182.581 431.178 182.377 432.928 182.206L469.212 149.394L534.112 135.071L524.953 141.914C501.904 158.919 481.086 158.817 481.086 158.817L472.092 159.21C462.8 163.215 459.561 163.945 444.811 181.794C449.87 182.033 454.23 182.939 457.428 184.828C474.004 194.62 466.696 216.607 457.472 220.759C455.165 221.797 450.324 223.336 444.362 225.061L436.355 222.915L432.394 228.386C431.992 228.494 431.591 228.602 431.189 228.709L423.043 226.526L419.176 231.866L416.084 232.661C408.331 230.743 402.608 222.488 402.608 222.488C398.997 227.634 398.493 236.924 398.493 236.924C398.493 236.924 398.918 236.878 399.646 236.794L398.543 237.066C398.543 237.066 410.914 254.137 426.826 253.305C440.978 252.565 484.602 240.673 516.83 238.152L606.573 241.616L632.565 221.893L564.176 219.253L578.331 199.076L658.554 202.172L684.546 182.45L592.487 178.896L606.644 158.715L710.536 162.727ZM336.715 94.8178L315.938 125.211C311.931 131.177 309.013 135.598 305.605 140.195L305.911 140.277C311.044 135.53 315.547 131.688 322.829 125.682L354.499 99.5843L373.649 104.715L314.543 147.791C297.125 160.265 280.272 170.133 266.182 174.774C259.338 177.07 252.271 178.391 248.266 178.696L249.884 163.52C254.222 162.998 258.891 162.26 263.376 161.015C269.713 159.192 276.345 156.685 280.611 153.695C281.545 152.874 282.3 152.313 283.053 150.985L316.806 89.4845L336.715 94.8178ZM284.127 80.7267L286.54 78.312C293.453 71.2906 301.316 65.7456 310.982 62.5191C318.071 60.1342 326.294 59.7375 333.893 61.7735C338.758 63.077 341.952 64.6976 343.781 65.9525L330.851 77.1781C329.391 76.1746 327.898 75.4698 325.466 74.818C318.625 72.9851 310.428 77.9808 305.326 83.1932L302.82 85.7355L324.86 91.6411L314.324 102.285L292.589 96.4611L244.65 144.978L225.653 139.888L273.592 91.3709M268.118 57.3088C271.371 52.6726 279.027 48.4504 285.713 50.242C291.944 51.9116 292.034 56.6775 288.807 61.017C284.138 67.4165 276.441 69.6384 270.816 68.1314C264.735 66.502 264.619 62.0365 268.118 57.3088ZM194.853 131.635L253.327 72.4739L272.323 77.5638L213.85 136.725L194.853 131.635ZM246.406 50.4203L230.678 66.4053L259.863 74.2253L249.478 84.9097L220.142 77.0491L193.095 104.539C191.104 106.605 189.594 108.496 188.78 109.656C186.07 113.521 187.357 115.549 190.853 116.485C192.22 116.852 194.197 117.382 196.201 117.612L185.426 129.109C181.388 128.947 176.952 128.064 173.304 127.087C161.906 124.033 160.076 117.114 166.04 108.612C168.027 105.78 171.077 102.464 174.006 99.575L201.144 71.9585L192.48 69.6371L203.018 58.9936L211.681 61.315L223.845 49.1195L246.406 50.4203ZM116.065 94.1494C118.112 96.3808 120.857 98.6458 126.265 99.9438C131.827 101.282 136.944 99.1317 139.745 95.1391C142.186 91.6598 141.927 88.6843 139.199 83.8225C135.89 77.7316 136.735 71.3782 140.53 65.9678C148.663 54.374 165.897 47.8225 182.767 52.3429C189.303 54.0943 193.29 56.3859 195.124 58.4054L182.795 69.0286C181.39 67.429 178.528 65.5912 175.336 64.736C169.258 63.1073 163.56 64.7943 160.579 69.0434C158.32 72.264 159.092 74.7675 160.872 78.1507C165.434 85.8017 163.834 92.7162 160.4 97.6112C150.642 111.522 133.819 116.198 116.797 111.637C109.957 109.804 105.054 106.5 103.553 104.262L116.065 94.1494ZM119.524 50.0897C118.187 49.4254 116.909 48.9292 115.845 48.6442C103.383 45.305 81.9671 64.5102 75.3077 73.7425C71.4215 79.2823 69.5336 83.5181 74.2469 84.7811C79.4119 86.165 89.3347 80.2561 100.114 69.5249L119.524 50.0897ZM76.4506 99.9106C78.9513 96.6023 81.6966 93.2059 84.4675 89.5102L84.0147 89.3888C72.213 96.175 62.808 97.4809 56.881 95.8928C46.0918 93.0018 46.2847 83.7173 54.0564 72.6388C67.4304 53.5742 97.6525 29.5392 129.568 38.091C137.017 40.0869 143.741 43.1117 147.216 45.8784L114.432 78.7143C107.456 85.5676 97.5027 97.4398 92.8669 104.307L76.4506 99.9106ZM58.4778 20.2656L60.891 17.8509C67.804 10.8294 75.6658 5.28411 85.3328 2.05796C92.4215 -0.325816 100.644 -0.723995 108.244 1.31239C113.109 2.6159 116.303 4.23652 118.133 5.4914L105.199 16.7174C103.736 15.7118 102.245 15.0087 99.8138 14.3573C92.9734 12.5244 84.7771 17.519 79.6734 22.7325L77.1684 25.2737L91.6074 29.1426L81.07 39.7861L66.9388 35.9997L18.9998 84.5167L4.14644e-05 79.4258L47.9403 30.909" fill="#333333"/>
</svg>
