<svg width="237" height="101" viewBox="0 0 237 101" fill="none" xmlns="http://www.w3.org/2000/svg">
<path d="M124.133 59.7285L105.206 67.3496L94.9483 64.4083L123.128 53.0699L124.133 59.7285Z" fill="black"/>
<path d="M124.133 59.7285L105.206 67.3496L94.9483 64.4083L123.128 53.0699L124.133 59.7285Z" fill="#333333"/>
<path d="M137.27 47.3876L161.037 37.8243L171.276 40.7444L138.28 54.0391L141.89 77.8342L131.633 74.893L124.437 27.2784L134.665 30.2112L137.27 47.3876Z" fill="black"/>
<path d="M137.27 47.3876L161.037 37.8243L171.276 40.7444L138.28 54.0391L141.89 77.8342L131.633 74.893L124.437 27.2784L134.665 30.2112L137.27 47.3876Z" fill="#333333"/>
<path d="M46.3862 50.0898L70.9018 19.1842L70.8986 19.1833L75.6004 13.2559L115.002 24.5543L110.301 30.4816L78.7171 21.4252L71.1533 30.9604L96.5527 38.2436L91.8508 44.1709L66.4515 36.8878L58.6835 46.6805L90.267 55.737L85.5652 61.6643L36.6217 47.63L30.9608 10.173L7.81548 39.351L0.000200432 37.1101L29.4375 0L39.2063 2.80115L46.3862 50.0898Z" fill="black"/>
<path d="M46.3862 50.0898L70.9018 19.1842L70.8986 19.1833L75.6004 13.2559L115.002 24.5543L110.301 30.4816L78.7171 21.4252L71.1533 30.9604L96.5527 38.2436L91.8508 44.1709L66.4515 36.8878L58.6835 46.6805L90.267 55.737L85.5652 61.6643L36.6217 47.63L30.9608 10.173L7.81548 39.351L0.000200432 37.1101L29.4375 0L39.2063 2.80115L46.3862 50.0898Z" fill="#333333"/>
<path d="M214.503 60.3613L198.873 55.8793L174.137 87.062L166.322 84.8208L191.057 53.6381L175.101 49.0629L179.803 43.1356L219.205 54.4339L214.503 60.3613Z" fill="black"/>
<path d="M214.503 60.3613L198.873 55.8793L174.137 87.062L166.322 84.8208L191.057 53.6381L175.101 49.0629L179.803 43.1356L219.205 54.4339L214.503 60.3613Z" fill="#333333"/>
<path d="M231.744 83.857C233.11 84.2488 234.158 84.7789 234.887 85.4577C235.619 86.1322 236.012 86.8921 236.066 87.7324C236.121 88.5729 235.818 89.4309 235.142 90.3073L231.785 89.3446C232.223 88.6613 232.26 88.0402 231.905 87.4892C231.546 86.9324 230.85 86.5084 229.817 86.2122C229.092 86.0043 228.397 85.9142 227.739 85.9397C227.079 85.9695 226.487 86.0923 225.972 86.3152C225.457 86.5383 225.046 86.8435 224.729 87.2274C224.472 87.5506 224.345 87.8586 224.345 88.1457C224.341 88.4369 224.431 88.7083 224.626 88.9626C224.812 89.2194 225.059 89.4568 225.358 89.6783C225.662 89.9011 225.98 90.1074 226.311 90.2963L227.83 91.1756C228.448 91.5197 229.006 91.9049 229.493 92.3315C229.983 92.7539 230.36 93.222 230.614 93.7282C230.869 94.2346 230.956 94.7813 230.874 95.3685C230.792 95.9555 230.488 96.5836 229.955 97.2555C229.237 98.1612 228.32 98.8747 227.196 99.398C226.076 99.9173 224.819 100.215 223.421 100.289C222.032 100.361 220.564 100.18 219.018 99.7364C217.525 99.3082 216.37 98.7477 215.571 98.0592C214.763 97.3735 214.337 96.5824 214.284 95.6903C214.231 94.7983 214.589 93.8309 215.354 92.7925L218.786 93.7765C218.409 94.3259 218.266 94.8331 218.34 95.2978C218.421 95.7597 218.689 96.1601 219.13 96.5058C219.579 96.8487 220.165 97.1264 220.89 97.3345C221.648 97.5516 222.389 97.6493 223.112 97.6318C223.828 97.6129 224.481 97.4868 225.067 97.2478C225.655 97.0144 226.127 96.6744 226.483 96.2337C226.798 95.8283 226.915 95.4498 226.839 95.1042C226.757 94.7571 226.53 94.4203 226.157 94.0943C225.781 93.7671 225.305 93.4323 224.728 93.0946L222.893 92.0154C221.57 91.2339 220.71 90.3763 220.323 89.4459C219.932 88.5141 220.177 87.4986 221.058 86.3886C221.78 85.4786 222.722 84.7672 223.885 84.2603C225.042 83.7517 226.305 83.4615 227.67 83.3882C229.043 83.3122 230.399 83.4715 231.744 83.857Z" fill="black"/>
<path d="M231.744 83.857C233.11 84.2488 234.158 84.7789 234.887 85.4577C235.619 86.1322 236.012 86.8921 236.066 87.7324C236.121 88.5729 235.818 89.4309 235.142 90.3073L231.785 89.3446C232.223 88.6613 232.26 88.0402 231.905 87.4892C231.546 86.9324 230.85 86.5084 229.817 86.2122C229.092 86.0043 228.397 85.9142 227.739 85.9397C227.079 85.9695 226.487 86.0923 225.972 86.3152C225.457 86.5383 225.046 86.8435 224.729 87.2274C224.472 87.5506 224.345 87.8586 224.345 88.1457C224.341 88.4369 224.431 88.7083 224.626 88.9626C224.812 89.2194 225.059 89.4568 225.358 89.6783C225.662 89.9011 225.98 90.1074 226.311 90.2963L227.83 91.1756C228.448 91.5197 229.006 91.9049 229.493 92.3315C229.983 92.7539 230.36 93.222 230.614 93.7282C230.869 94.2346 230.956 94.7813 230.874 95.3685C230.792 95.9555 230.488 96.5836 229.955 97.2555C229.237 98.1612 228.32 98.8747 227.196 99.398C226.076 99.9173 224.819 100.215 223.421 100.289C222.032 100.361 220.564 100.18 219.018 99.7364C217.525 99.3082 216.37 98.7477 215.571 98.0592C214.763 97.3735 214.337 96.5824 214.284 95.6903C214.231 94.7983 214.589 93.8309 215.354 92.7925L218.786 93.7765C218.409 94.3259 218.266 94.8331 218.34 95.2978C218.421 95.7597 218.689 96.1601 219.13 96.5058C219.579 96.8487 220.165 97.1264 220.89 97.3345C221.648 97.5516 222.389 97.6493 223.112 97.6318C223.828 97.6129 224.481 97.4868 225.067 97.2478C225.655 97.0144 226.127 96.6744 226.483 96.2337C226.798 95.8283 226.915 95.4498 226.839 95.1042C226.757 94.7571 226.53 94.4203 226.157 94.0943C225.781 93.7671 225.305 93.4323 224.728 93.0946L222.893 92.0154C221.57 91.2339 220.71 90.3763 220.323 89.4459C219.932 88.5141 220.177 87.4986 221.058 86.3886C221.78 85.4786 222.722 84.7672 223.885 84.2603C225.042 83.7517 226.305 83.4615 227.67 83.3882C229.043 83.3122 230.399 83.4715 231.744 83.857Z" fill="#333333"/>
<path d="M212.282 91.8802C211.484 92.878 210.541 93.6566 209.452 94.2267C208.358 94.795 207.197 95.1355 205.959 95.2554C204.728 95.3724 203.487 95.2569 202.253 94.9031C201.125 94.5796 200.245 94.124 199.602 93.5427C198.958 92.9613 198.628 92.2714 198.61 91.4832C198.586 90.6933 198.957 89.8236 199.713 88.871L203.182 89.8658C202.857 90.284 202.686 90.6791 202.669 91.0447C202.652 91.4102 202.777 91.7277 203.04 92.0017C203.309 92.277 203.701 92.4888 204.214 92.636C204.77 92.7955 205.321 92.8384 205.859 92.7579C206.394 92.6815 206.914 92.486 207.417 92.171C207.911 91.8587 208.382 91.43 208.819 90.8873L217.445 80.0126L220.908 81.0055L212.282 91.8802Z" fill="black"/>
<path d="M212.282 91.8802C211.484 92.878 210.541 93.6566 209.452 94.2267C208.358 94.795 207.197 95.1355 205.959 95.2554C204.728 95.3724 203.487 95.2569 202.253 94.9031C201.125 94.5796 200.245 94.124 199.602 93.5427C198.958 92.9613 198.628 92.2714 198.61 91.4832C198.586 90.6933 198.957 89.8236 199.713 88.871L203.182 89.8658C202.857 90.284 202.686 90.6791 202.669 91.0447C202.652 91.4102 202.777 91.7277 203.04 92.0017C203.309 92.277 203.701 92.4888 204.214 92.636C204.77 92.7955 205.321 92.8384 205.859 92.7579C206.394 92.6815 206.914 92.486 207.417 92.171C207.911 91.8587 208.382 91.43 208.819 90.8873L217.445 80.0126L220.908 81.0055L212.282 91.8802Z" fill="#333333"/>
<path d="M194.329 88.5126C194.88 88.6705 195.233 88.9702 195.385 89.4102C195.542 89.8519 195.441 90.2982 195.089 90.7506C194.841 91.0551 194.522 91.3084 194.133 91.5047C193.735 91.7036 193.328 91.8321 192.9 91.887C192.475 91.9478 192.075 91.9272 191.705 91.8211C191.132 91.6569 190.773 91.3557 190.622 90.9157C190.471 90.4757 190.58 90.0265 190.953 89.5645C191.305 89.1123 191.814 88.783 192.478 88.5766C193.142 88.3704 193.757 88.3485 194.329 88.5126Z" fill="black"/>
<path d="M194.329 88.5126C194.88 88.6705 195.233 88.9702 195.385 89.4102C195.542 89.8519 195.441 90.2982 195.089 90.7506C194.841 91.0551 194.522 91.3084 194.133 91.5047C193.735 91.7036 193.328 91.8321 192.9 91.887C192.475 91.9478 192.075 91.9272 191.705 91.8211C191.132 91.6569 190.773 91.3557 190.622 90.9157C190.471 90.4757 190.58 90.0265 190.953 89.5645C191.305 89.1123 191.814 88.783 192.478 88.5766C193.142 88.3704 193.757 88.3485 194.329 88.5126Z" fill="#333333"/>
</svg>
