<svg width="181" height="112" viewBox="0 0 181 112" fill="none" xmlns="http://www.w3.org/2000/svg">
<g clip-path="url(#clip0_33_175)">
<path d="M91.2154 49.6819C89.3345 49.8025 87.4298 50.2877 85.7423 51.0763C84.0547 51.8648 82.66 52.9213 81.7345 54.1121C80.8091 55.3028 80.3944 56.5745 80.5429 57.7662C80.6914 58.9579 81.3965 60.0161 82.5689 60.8071C83.7414 61.5981 85.3286 62.0863 87.1298 62.2099C88.9311 62.3336 90.8655 62.0872 92.6885 61.5019C94.5115 60.9167 96.1412 60.0187 97.3715 58.9217C98.6018 57.8247 99.3775 56.5779 99.6006 55.3388C99.7487 54.516 99.6493 53.7169 99.308 52.9872C98.9667 52.2576 98.3903 51.6117 97.6117 51.0864C96.833 50.561 95.8673 50.1666 94.7698 49.9257C93.6724 49.6847 92.4645 49.6019 91.2154 49.6819ZM119.391 67.5747C119.317 66.9736 119.216 66.3623 119.09 65.7406C119.788 65.5649 120.473 65.3863 121.145 65.2049C133.829 61.7579 142.549 56.9396 143.338 52.5362C144.098 48.3119 137.401 44.702 126.365 42.8295C125.278 42.6467 124.178 42.4825 123.065 42.3368C123.347 41.8136 123.616 41.2891 123.873 40.7633C127.96 32.2967 127.464 25.7206 122.064 23.892C116.891 22.136 107.408 24.9204 97.2823 30.77C96.2828 31.3474 95.3034 31.9375 94.344 32.5401C93.8322 32.2116 93.309 31.8908 92.7744 31.5775C84.1649 26.5707 74.9534 24.819 68.7657 27.3985C62.8372 29.8682 60.0587 36.2608 60.983 43.9747C61.0792 44.7379 61.2032 45.4963 61.3552 46.2498C59.9443 46.5902 58.5818 46.9456 57.2676 47.316C45.5255 50.6271 37.5984 55.1473 36.8428 59.3559C36.0609 63.7059 43.0035 67.571 54.2733 69.4627C55.1873 69.6154 56.1119 69.7516 57.0471 69.8714C56.5828 70.7194 56.1539 71.5723 55.7604 72.43C52.1478 80.3013 52.7844 86.3232 57.9401 88.0733C63.2678 89.8818 73.2657 87.0315 83.5786 81.0521C84.3939 80.5783 85.2145 80.0819 86.0404 79.5629C86.869 80.0963 87.7262 80.6107 88.6119 81.1062C96.7392 85.6571 105.303 87.1588 111.213 84.6957C117.322 82.1496 120.358 75.4362 119.391 67.5747ZM70.5783 29.8445C74.3863 28.2579 81.9165 29.6881 89.3468 34.0152C89.8226 34.2914 90.2978 34.5816 90.7723 34.8859C87.0838 37.4258 83.6078 40.0904 80.3673 42.8624C75.5397 43.4511 70.7084 44.2398 65.9032 45.2237C65.7615 44.5253 65.6472 43.8204 65.5605 43.1091C64.76 36.503 67.0049 31.3346 70.5783 29.8445ZM68.9014 53.8909C67.9518 51.9055 67.1815 49.9422 66.6066 48.0367C69.7246 47.3933 73.0295 46.822 76.4591 46.3274C75.1191 47.56 73.8196 48.8077 72.5605 50.0706C71.2985 51.3326 70.0788 52.606 68.9014 53.8909ZM56.2605 66.5318C51.9148 65.8898 47.967 64.6866 44.6162 62.983C43.6431 62.5707 42.855 62.0105 42.3006 61.3367C41.7461 60.663 41.437 59.8899 41.3921 59.0652C41.8452 56.5116 48.2152 52.881 58.2572 50.0499C59.5171 49.6955 60.7849 49.3638 62.0607 49.0548C62.949 51.9884 64.1511 54.837 65.6592 57.582C63.0875 60.6296 60.7923 63.7437 58.7885 66.9043C57.9377 66.7959 57.0925 66.6724 56.253 66.5335M112.55 51.0967C111.787 49.9296 110.985 48.7792 110.143 47.6453C109.312 46.5268 108.444 45.4254 107.537 44.3412C110.751 44.4017 113.924 44.5682 117.045 44.8401C115.697 46.9525 114.197 49.0408 112.55 51.0967ZM99.8695 32.8386C108.537 27.8307 116.21 25.5792 119.329 26.638C122.654 27.7622 123.057 33.1374 119.53 40.445C119.298 40.9221 119.053 41.3976 118.794 41.8712C114.231 41.4711 109.566 41.2801 104.829 41.2992C102.55 38.8775 99.984 36.598 97.1496 34.4765C98.0404 33.9195 98.9471 33.3735 99.8695 32.8386ZM93.5822 36.8239C95.5141 38.2716 97.3076 39.8012 98.9554 41.4067C94.7828 41.5432 90.5867 41.8105 86.3671 42.2089C88.7578 40.2786 91.1778 38.4744 93.5822 36.8239ZM67.6443 60.9374C68.3856 62.103 69.1751 63.249 70.0128 64.3757C70.8663 65.5249 71.7641 66.6548 72.7062 67.7653C69.4521 67.7423 66.2389 67.6054 63.0795 67.3553C64.4506 65.1908 65.973 63.05 67.6411 60.9406M80.9893 78.9914C77.1309 81.3231 72.7899 83.2486 68.1852 84.6709C66.9598 85.1106 65.6619 85.3966 64.3714 85.5113C63.0809 85.626 61.8251 85.5671 60.6811 85.3381C57.549 84.2749 57.0386 79.4389 60.1335 72.7069C60.4993 71.9114 60.8973 71.1182 61.3275 70.3274C65.9397 70.695 70.6541 70.8452 75.438 70.7769C77.7676 73.2059 80.3739 75.496 83.2402 77.6326C82.5014 78.0951 81.7511 78.5481 80.9893 78.9914ZM86.7925 75.2715C84.8222 73.8026 82.9873 72.2533 81.2947 70.6291C83.3237 70.553 85.3959 70.447 87.5113 70.3114C89.6839 70.1722 91.8324 70.0033 93.9569 69.8049C91.6902 71.6884 89.2989 73.5131 86.7925 75.2715ZM103.93 60.7063C101.982 62.6548 99.9536 64.5735 97.8461 66.4624C94.6499 66.8156 91.3848 67.0996 88.0508 67.3144C84.7319 67.5257 81.5293 67.6648 78.443 67.7316C76.9212 66.0805 75.5116 64.3786 74.214 62.626C72.9244 60.8847 71.7495 59.0978 70.6891 57.2653C72.435 55.2509 74.2833 53.2683 76.234 51.3176C78.1825 49.3691 80.2274 47.4547 82.3685 45.5744C88.8899 44.8363 95.381 44.4208 101.786 44.3314C103.274 45.974 104.659 47.6634 105.943 49.3996C107.234 51.1388 108.429 52.9179 109.525 54.737C107.757 56.7552 105.892 58.7449 103.93 60.7063ZM124.378 45.7605C133.832 47.367 139.248 50.2841 138.79 52.8316C138.303 55.5456 131.181 59.4795 120.223 62.4552C119.618 62.6193 119 62.7806 118.369 62.9391C117.427 59.9943 116.159 57.1401 114.573 54.3965C117.107 51.4273 119.365 48.3907 121.332 45.3069C122.383 45.4458 123.398 45.597 124.378 45.7605ZM111.355 58.0353C112.348 59.9636 113.173 61.9476 113.825 63.9791C110.458 64.6751 107.074 65.2595 103.689 65.7298C105.025 64.4817 106.329 63.2223 107.599 61.9518C108.891 60.6599 110.143 59.3544 111.355 58.0353ZM109.405 82.2512C105.816 83.7448 98.9403 82.5409 91.9836 78.6495C91.1861 78.204 90.3912 77.7251 89.5992 77.2127C93.2502 74.6522 96.6805 71.9659 99.8667 69.1723C104.767 68.592 109.673 67.7949 114.551 66.7868C114.666 67.3503 114.758 67.9029 114.826 68.4446C115.316 71.4175 114.925 74.5457 113.674 77.6711C113.423 78.5219 112.915 79.3672 112.181 80.1548C111.446 80.9425 110.502 81.6559 109.405 82.2512Z" fill="#333333"/>
</g>
<defs>
<clipPath id="clip0_33_175">
<rect width="108.895" height="108.895" fill="white" transform="matrix(0.94693 0.321439 -0.707107 0.707107 77.0002 0)"/>
</clipPath>
</defs>
</svg>
