<svg width="737" height="279" viewBox="0 0 737 279" fill="none" xmlns="http://www.w3.org/2000/svg">
<path d="M85.8728 69.2149C77.4385 63.4955 68.7125 59.3585 73.9847 54.2672C80.0351 48.4243 89.995 49.1418 96.7891 51.4045C103.708 53.5466 108.989 58.3617 107.483 64.1874L128.366 60.1135C130.069 51.2002 120.522 43.0232 105.929 38.8387C87.1504 33.6121 65.5357 35.9977 52.7826 48.3131C39.2254 61.4052 50.6241 69.7674 60.6891 76.7711C68.7458 82.2255 76.4992 86.5873 71.2518 91.6547C66.0055 96.7209 56.9435 97.1101 47.1633 93.9911C38.407 90.9767 32.5283 85.0154 34.8218 78.5989L13.0765 83.0856C11.6603 92.3944 20.6125 101.564 37.4879 106.403C57.0542 112.172 79.6758 110.577 92.8309 97.8734C106.638 84.5399 95.8942 76.1764 85.8314 69.1719L85.8728 69.2149Z" fill="#333333"/>
<path d="M146.633 119.114C131.21 114.848 127.98 103.893 140.106 92.1829C152.231 80.4733 171.353 76.0834 186.501 80.6146C195.29 83.135 200.034 87.7976 200.053 93.7458L223.417 89.2508C223.247 78.827 216.007 70.6501 200.13 65.9408C172.109 57.7492 139.196 66.4225 119.062 85.8653C98.9275 105.309 102.392 125.074 130.539 133.145C146.709 137.781 164.544 135.978 181.728 130.183L175.527 117.683C165.969 121.2 155.457 121.644 146.668 119.124L146.633 119.114Z" fill="#333333"/>
<path d="M307.287 116.57C310.698 106.008 306.866 96.5144 290.327 91.7719C264.998 84.5089 233.455 93.4168 213.32 112.861C193.186 132.304 195.442 151.721 220.737 158.975C237.276 163.717 254.664 160.119 269.931 152.644L255.195 166.875L277.169 173.176L343.873 108.761L321.899 102.46L307.287 116.57ZM241.57 146.335C226.44 141.997 223.084 131.162 235.21 119.452C247.336 107.743 266.307 103.497 281.438 107.836C296.568 112.175 300.544 122.873 288.317 134.68C276.091 146.487 256.701 150.674 241.57 146.335Z" fill="#333333"/>
<path d="M415.13 90.616L393.155 84.315L295.523 178.598L317.497 184.899L415.13 90.616Z" fill="#333333"/>
<path d="M446.667 136.602C417.648 128.28 385.902 137.131 365.768 156.574C345.634 176.017 349.299 195.839 379.19 204.41C394.823 208.893 413.13 208.861 429.402 204.156L422.086 191.18C412.751 193.597 402.155 193.703 393.123 190.955C378.53 186.77 375.185 177.228 383.768 167.175L453.916 187.29C478.357 166.125 477.598 145.471 446.667 136.602ZM392.329 158.908C403.896 149.711 419.34 146.058 433.933 150.243C448.526 154.427 451.694 163.259 443.405 173.239L392.329 158.908Z" fill="#333333"/>
<path d="M594.275 180.565L568.946 173.302L509.343 186.365L564.223 133.368L542.249 127.067L444.616 221.35L466.59 227.651L497.368 197.929L504.935 238.646L530.968 246.111L521.534 197.28L594.275 180.565Z" fill="#333333"/>
<path d="M545.899 250.39L567.874 256.691L634.854 192.008L612.88 185.707L545.899 250.39Z" fill="#333333"/>
<path d="M644.029 247.056L672.323 219.733L690.271 224.879L703.702 211.909L685.754 206.763L703.905 189.234L677.989 186.74L663.78 200.462L650.227 196.575L636.795 209.545L650.349 213.432L619.695 243.033C598.633 263.373 610.257 270.636 639.111 276.93L651.864 264.615C636.326 261.134 633.82 256.956 644.062 247.065L644.029 247.056Z" fill="#333333"/>
<path d="M634.454 178.663C641.865 180.788 652.369 178.169 657.916 172.812C663.463 167.456 661.951 161.391 654.54 159.266C647.127 157.14 636.623 159.759 631.076 165.116C625.529 170.473 627.041 176.537 634.454 178.663Z" fill="#333333"/>
</svg>
