<svg width="193" height="114" viewBox="0 0 193 114" fill="none" xmlns="http://www.w3.org/2000/svg">
<g clip-path="url(#clip0_scalekit)">
<g transform="translate(16, 24) scale(1.2)">
<path d="M16.4816 27.8214C14.3975 27.155 12.5092 26.825 12.5092 25.4922C12.5092 23.9627 14.0628 23.5312 15.389 23.5946C16.7153 23.6264 18.2057 24.2927 18.8625 25.5557L21.2813 23.5248C20.1887 21.6272 17.5742 20.5292 14.827 20.5292C11.3156 20.561 8.53681 22.2936 8.53681 25.5176C8.53681 28.9447 11.4482 29.9729 13.9617 30.8043C15.9511 31.4389 17.732 31.8705 17.732 33.1969C17.732 34.5233 16.4753 35.1263 14.587 35.0628C12.8629 34.9612 11.1135 34.0981 10.482 32.6702L8 34.8343C9.19361 36.7954 11.8713 38.1282 15.048 38.1282C18.7551 38.1599 21.7992 36.5288 21.7992 33.2033C21.7992 29.7127 18.9825 28.6465 16.469 27.8151L16.4816 27.8214Z" fill="#333333"/>
<path d="M32.8054 34.3765C29.9255 34.4083 27.8099 32.3837 27.8099 29.3184C27.8099 26.253 29.9255 24.2602 32.8054 24.2982C34.46 24.2982 35.8494 24.9646 36.7462 26.1641L39.4618 23.9048C37.8703 21.8104 35.5905 20.5792 32.578 20.5474C27.2794 20.5157 23.8059 24.1713 23.8059 29.2612C23.8059 34.3512 27.2794 38.14 32.578 38.14C35.622 38.14 37.9398 36.7438 39.5628 34.5796L36.7841 32.4155C35.9252 33.6784 34.4663 34.3765 32.8117 34.3765H32.8054Z" fill="#333333"/>
<path d="M55.7319 24.5589C54.6394 22.2297 52.6563 20.5352 49.5428 20.5352C44.7747 20.5352 41.5349 24.1591 41.5349 29.249C41.5349 34.3389 44.781 38.1278 49.5428 38.1278C52.6563 38.1278 54.6394 36.3952 55.7319 34.0026V37.728H59.8685V20.8652H55.7319V24.5589ZM50.667 34.3706C47.8187 34.3706 45.7031 32.3778 45.7031 29.3125C45.7031 26.2471 47.8187 24.2924 50.667 24.2924C53.5152 24.2924 55.7004 26.2217 55.7004 29.3125C55.7004 32.4032 53.5152 34.3706 50.667 34.3706Z" fill="#333333"/>
<path d="M67.4872 13.08H63.3506V37.7617H67.4872V13.08Z" fill="#333333"/>
<path d="M78.9784 20.5352C73.5156 20.5352 70.2379 24.1591 70.2379 29.249C70.2379 34.3389 73.7493 38.1278 79.3763 38.1278C82.3193 38.1278 84.9718 37.0616 86.6264 35.1703L83.6139 32.9744C82.6224 34.0025 81.1004 34.6372 79.3763 34.6055C76.6291 34.6055 74.7092 32.8729 74.444 30.347H87.6495C88.0158 24.6605 84.8012 20.5352 78.9784 20.5352ZM74.444 28.1828C74.7408 25.6569 76.4333 24.0258 79.1805 24.0258C81.9277 24.0258 83.715 25.6251 84.0118 28.1193L74.444 28.1828Z" fill="#333333"/>
<path d="M107.009 20.8672H102.241L95.5532 26.9535V13.08H91.4166V37.7617H95.5532V29.9808L102.772 37.7617H107.672L98.9635 28.4513L107.009 20.8672Z" fill="#333333"/>
<path d="M110.48 37.7593H114.616V20.8267H110.48V37.7593Z" fill="#333333"/>
<path d="M124.223 31.4107V24.2582H127.602V20.8628H124.223V16.2742L120.087 17.2706V20.8628H117.535V24.2582H120.087V32.0073C120.087 37.332 122.866 38.1253 128 37.7255V34.5015C125.221 34.6982 124.23 34.0001 124.23 31.4107H124.223Z" fill="#333333"/>
<path d="M112.562 18.1578C113.957 18.1578 115.088 17.0211 115.088 15.6189C115.088 14.2167 113.957 13.08 112.562 13.08C111.166 13.08 110.035 14.2167 110.035 15.6189C110.035 17.0211 111.166 18.1578 112.562 18.1578Z" fill="#333333"/>
</g>
</g>
<defs>
<clipPath id="clip0_scalekit">
<rect width="122.9" height="106.578" fill="white" transform="matrix(0.951057 0.309017 -0.707107 0.707107 75.3619 0)"/>
</clipPath>
</defs>
</svg>
