<svg width="192" height="118" viewBox="0 0 192 118" fill="none" xmlns="http://www.w3.org/2000/svg">
<g clip-path="url(#clip0_33_177)">
<path d="M116.366 38.3257C104.125 34.3485 91.9818 36.4092 79.8096 44.5118C88.9272 41.4681 95.9952 41.5066 100.968 44.6126C103.804 46.3922 104.451 49.0862 105.122 52.0591C106.207 56.9273 107.376 62.5005 118.837 66.2244C131.077 70.2015 143.22 68.1409 155.393 60.0383C146.275 63.082 139.207 63.0435 134.234 59.9375C131.398 58.1579 130.797 55.4788 130.08 52.491C128.995 47.6228 127.827 42.0496 116.366 38.3257ZM72.9926 51.3288C60.7522 47.3516 48.6088 49.4123 36.4366 57.5149C45.5543 54.4712 52.6223 54.5097 57.5948 57.6156C60.4313 59.3953 61.0322 62.0744 61.7495 65.0622C62.8338 69.9304 64.0027 75.5036 75.4637 79.2275C87.704 83.2046 99.8474 81.144 112.02 73.0414C102.902 76.0851 95.834 76.0466 90.8615 72.9406C88.025 71.161 87.4241 68.4819 86.7068 65.4941C85.6225 60.6259 84.4536 55.0527 72.9926 51.3288Z" fill="#333333"/>
</g>
<defs>
<clipPath id="clip0_33_177">
<rect width="115.688" height="115.688" fill="white" transform="matrix(0.951057 0.309017 -0.707107 0.707107 81.8037 0)"/>
</clipPath>
</defs>
</svg>
