<svg width="193" height="114" viewBox="0 0 193 114" fill="none" xmlns="http://www.w3.org/2000/svg">
<g clip-path="url(#clip0_33_162)">
<path d="M143.428 22.1162C140.029 22.564 136.648 23.447 133.491 24.7117L132.901 24.9533L121.58 29.715L74.4041 49.5838L68.8386 81.0133L57.5182 85.7799C48.4215 89.6184 37.8039 89.2413 32.1894 84.8804C29.3021 82.6802 28.2791 79.5781 28.7475 76.3247L28.8013 75.9877L34.6936 42.9387C34.9843 41.1495 36.0522 39.3097 37.703 37.6589C39.2526 36.1041 41.3009 34.7431 43.6614 33.6998L44.1365 33.4957L92.362 13.199C98.5781 10.5659 105.745 10.0004 111.27 11.6718L111.637 11.7863L143.428 22.1162ZM149.305 24.9073C158.575 25.4589 164.497 30.3156 163.615 36.5775L163.568 36.8719L157.598 70.3571C157.31 72.1432 156.24 73.986 154.588 75.6372C153.041 77.1845 150.982 78.5658 148.629 79.5983L148.155 79.8001L99.9297 100.097C93.7136 102.73 86.5461 103.296 81.0212 101.624L80.6552 101.509L48.8633 91.1796C52.2236 90.7242 55.5822 89.8622 58.7577 88.6001L59.3904 88.3424L70.7154 83.5773L117.887 63.7123L123.485 32.2509L134.155 27.7765C138.952 25.764 144.352 24.6036 149.305 24.9073Z" fill="#333333"/>
</g>
<defs>
<clipPath id="clip0_33_162">
<rect width="122.9" height="106.578" fill="white" transform="matrix(0.951057 0.309017 -0.707107 0.707107 75.3619 0)"/>
</clipPath>
</defs>
</svg>
