<svg width="127" height="48" viewBox="0 0 127 48" fill="none" xmlns="http://www.w3.org/2000/svg">
<path d="M0 9.94583H1.98917V11.935H0V9.94583ZM1.98917 43.7617V37.7942H3.97833V35.805H5.9675V33.8158H9.94583V31.8267H11.935V29.8375H13.9242V33.8158H17.9025V35.805H19.8917V37.7942H21.8808V39.7833H19.8917V41.7725H17.9025V43.7617H15.9133V41.7725H13.9242V39.7833H9.94583V41.7725H7.95666V45.7508H9.94583V47.74H5.9675V45.7508H3.97833V43.7617H1.98917ZM1.98917 9.94583V5.9675H3.97833V3.97833H5.9675V1.98917H13.9242V3.97833H17.9025V5.9675H19.8917V9.94583H21.8808V11.935H23.87V13.9242H25.8592V15.9133H23.87V17.9025H33.8158V19.8917H31.8267V21.8808H27.8483V25.8592H29.8375V27.8483H31.8267V29.8375H33.8158V33.8158H35.805V35.805H37.7942V37.7942H33.8158V39.7833H31.8267V41.7725H29.8375V39.7833H27.8483V35.805H25.8592V31.8267H23.87V29.8375H21.8808V25.8592H17.9025V23.87H3.97833V21.8808H5.9675V19.8917H7.95666V17.9025H15.9133V15.9133H13.9242V11.935H11.935V7.95667H9.94583V5.9675H7.95666V7.95667H3.97833V9.94583H1.98917ZM13.9242 29.8375V27.8483H15.9133V29.8375H13.9242ZM15.9133 27.8483V25.8592H17.9025V27.8483H15.9133ZM21.8808 37.7942V35.805H23.87V37.7942H21.8808ZM21.8808 9.94583V7.95667H23.87V9.94583H21.8808ZM23.87 7.95667V5.9675H25.8592V1.98917H29.8375V3.97833H33.8158V1.98917H37.7942V7.95667H35.805V9.94583H31.8267V11.935H29.8375V9.94583H27.8483V13.9242H25.8592V7.95667H23.87ZM37.7942 35.805V33.8158H39.7833V35.805H37.7942ZM37.7942 1.98917V0H39.7833V1.98917H37.7942Z" fill="#878787"/>
<path d="M91.9254 7.24121H80.7905V40.3944H91.9254V7.24121Z" fill="#878787"/>
<path d="M127 7.24121H115.169V40.3944H127V7.24121Z" fill="#878787"/>
<path d="M126.653 17.9239V7.24121L104.313 7.24121V17.9239H126.653Z" fill="#878787"/>
<path d="M127 40.3956V29.7129H104.313V40.3956H127Z" fill="#878787"/>
<path d="M104.312 29.7126V17.9248H91.925V29.7126H104.312Z" fill="#878787"/>
<path d="M56.645 24.5267V23.3781H59.59V20.4331H60.7386V23.3781H63.6836V24.5267H60.7386V27.4717H59.59V24.5267H56.645Z" fill="#878787"/>
</svg>
